<svg width="19" height="17" viewBox="0 0 19 17" fill="none" xmlns="http://www.w3.org/2000/svg">
<path id="cart" d="M16.0655 10.625H6.73449L6.94283 11.6875H15.4868C15.977 11.6875 16.3403 12.1623 16.2317 12.661L16.0561 13.467C16.651 13.7683 17.0613 14.4044 17.0613 15.1406C17.0613 16.1766 16.249 17.0147 15.2525 16.9998C14.3032 16.9856 13.5225 16.182 13.4969 15.192C13.4829 14.6512 13.6906 14.1611 14.0318 13.8125H7.3585C7.68881 14.15 7.89402 14.6202 7.89402 15.1406C7.89402 16.1969 7.04962 17.0475 6.02651 16.9979C5.11806 16.9539 4.37924 16.1883 4.3315 15.2409C4.29464 14.5093 4.66368 13.8645 5.22438 13.5281L2.98837 2.125H0.763938C0.342021 2.125 0 1.76823 0 1.32812V0.796875C0 0.356768 0.342021 0 0.763938 0H4.02751C4.39041 0 4.70321 0.266322 4.77595 0.637168L5.06771 2.125H17.5702C18.0605 2.125 18.4238 2.59984 18.3152 3.09848L16.8104 10.0047C16.7314 10.3675 16.4222 10.625 16.0655 10.625Z" fill="white"/>
</svg>
